<svg id="Layer_1" data-name="Layer 1" xmlns="http://www.w3.org/2000/svg" viewBox="0 0 1263 2578.68"><defs><style>.cls-1,.cls-3,.cls-4{opacity:0.54;}.cls-2,.cls-4{stroke:#f2522e;stroke-miterlimit:10;}.cls-2{stroke-width:4px;}.cls-3{fill:#f2522e;}.cls-4{fill:none;stroke-width:5px;}</style></defs><title>background</title><g class="cls-1"><line class="cls-2" x1="586.12" y1="831.03" x2="650.06" y2="894.96"/><line class="cls-2" x1="650.06" y1="831.03" x2="586.12" y2="894.96"/></g><g class="cls-1"><line class="cls-2" x1="690.68" y1="539.9" x2="754.61" y2="603.83"/><line class="cls-2" x1="754.61" y1="539.9" x2="690.68" y2="603.83"/></g><g class="cls-1"><line class="cls-2" x1="316.53" y1="458.92" x2="380.46" y2="522.85"/><line class="cls-2" x1="380.46" y1="458.92" x2="316.53" y2="522.85"/></g><g class="cls-1"><line class="cls-2" x1="614.83" y1="388.19" x2="678.76" y2="452.12"/><line class="cls-2" x1="678.76" y1="388.19" x2="614.83" y2="452.12"/></g><g class="cls-1"><line class="cls-2" x1="672.83" y1="47.19" x2="736.76" y2="111.12"/><line class="cls-2" x1="736.76" y1="47.19" x2="672.83" y2="111.12"/></g><g class="cls-1"><line class="cls-2" x1="374.96" y1="148.32" x2="438.89" y2="212.25"/><line class="cls-2" x1="438.89" y1="148.32" x2="374.96" y2="212.25"/></g><g class="cls-1"><line class="cls-2" x1="964.38" y1="82.71" x2="1028.31" y2="146.65"/><line class="cls-2" x1="1028.31" y1="82.71" x2="964.38" y2="146.65"/></g><path class="cls-3" d="M552.3,639.69a50,50,0,1,0,50,50A50,50,0,0,0,552.3,639.69Zm0,92.59a42.62,42.62,0,1,1,42.62-42.62A42.61,42.61,0,0,1,552.3,732.28Z"/><path class="cls-3" d="M124.84,287.06a50,50,0,1,0,50,50A50,50,0,0,0,124.84,287.06Zm0,92.6A42.63,42.63,0,1,1,167.46,337,42.61,42.61,0,0,1,124.84,379.66Z"/><path class="cls-3" d="M558.84,37.06a50,50,0,1,0,50,50A50,50,0,0,0,558.84,37.06Zm0,92.6A42.63,42.63,0,1,1,601.46,87,42.61,42.61,0,0,1,558.84,129.66Z"/><path class="cls-3" d="M791.14,358.82a50,50,0,1,0,50,50A50,50,0,0,0,791.14,358.82Zm0,92.59a42.62,42.62,0,1,1,42.62-42.62A42.62,42.62,0,0,1,791.14,451.41Z"/><path class="cls-3" d="M320.63,279.89a50,50,0,1,0,50,50A50,50,0,0,0,320.63,279.89Zm0,92.59a42.62,42.62,0,1,1,42.62-42.62A42.61,42.61,0,0,1,320.63,372.48Z"/><path class="cls-3" d="M1077.14,236.84a50,50,0,1,0,50,50A50,50,0,0,0,1077.14,236.84Zm0,92.59a42.63,42.63,0,1,1,42.62-42.62A42.61,42.61,0,0,1,1077.14,329.43Z"/><path class="cls-3" d="M412.85,789l-99.28-57.32V846.32Zm-15.74-.14-75.42,43.55V745.33Z"/><path class="cls-3" d="M1027.47,441.07l-57.32,99.28h114.63Zm-.14,15.74,43.55,75.42H983.79Z"/><path class="cls-3" d="M195.1,541.53,137.78,640.8H252.42ZM195,557.27l43.54,75.42H151.42Z"/><path class="cls-3" d="M459.13,278.51l99.28,57.32V221.2Zm15.74.14L550.3,235.1v87.09Z"/><path class="cls-3" d="M1190.89,86.82l-99.28-57.31V144.14Zm-15.74-.13-75.43,43.55V43.14Z"/><path class="cls-3" d="M747.62,159.17,690.3,258.45H804.94Zm-.13,15.74L791,250.33H703.94Z"/><line class="cls-4" x1="956.66" y1="629.45" x2="1036.76" y2="709.55"/><line class="cls-4" x1="741.25" y1="669.31" x2="719.12" y2="780.4"/><path class="cls-4" d="M892.3,685.19c-17.75,17.95-39.46,44.87-32.34,67.6,8.86,28.27,56.24,30.69,57.32,51.44,1.16,22.13-52.12,30.3-57.32,61.73-3.11,18.82,12.43,37.49,27.93,51.44"/><path class="cls-4" d="M1198.8,359.21c-17.75,18-39.46,44.87-32.34,67.61,8.86,28.26,56.24,30.68,57.32,51.43,1.16,22.13-52.12,30.3-57.32,61.73-3.11,18.82,12.43,37.5,27.93,51.44"/><path class="cls-4" d="M521.22,359.21c-17.75,18-39.46,44.87-32.34,67.61,8.86,28.26,56.24,30.68,57.32,51.43,1.16,22.13-52.12,30.3-57.32,61.73-3.11,18.82,12.43,37.5,27.93,51.44"/><path class="cls-4" d="M939.45,208.52c-17.74,18-39.46,44.87-32.33,67.61,8.86,28.27,56.23,30.68,57.32,51.44,1.15,22.12-52.13,30.29-57.32,61.72-3.11,18.83,12.42,37.5,27.92,51.44"/><path class="cls-4" d="M216.77,46.56c-17.75,18-39.46,44.87-32.34,67.61,8.86,28.26,56.24,30.68,57.32,51.43,1.16,22.13-52.12,30.3-57.32,61.73-3.11,18.82,12.43,37.5,27.93,51.44"/><path class="cls-3" d="M841.25,623.48a17.64,17.64,0,1,0,17.63,17.63A17.63,17.63,0,0,0,841.25,623.48Zm0,27.92a10.29,10.29,0,1,1,10.28-10.29A10.28,10.28,0,0,1,841.25,651.4Z"/><path class="cls-3" d="M866.25,173.48a17.64,17.64,0,1,0,17.63,17.63A17.63,17.63,0,0,0,866.25,173.48Zm0,27.92a10.29,10.29,0,1,1,10.28-10.29A10.28,10.28,0,0,1,866.25,201.4Z"/><path class="cls-3" d="M406.61,662.43a17.64,17.64,0,1,0,17.64,17.64A17.64,17.64,0,0,0,406.61,662.43Zm0,27.92a10.29,10.29,0,1,1,10.29-10.28A10.28,10.28,0,0,1,406.61,690.35Z"/><path class="cls-3" d="M740.79,291.35A17.64,17.64,0,1,0,758.42,309,17.63,17.63,0,0,0,740.79,291.35Zm0,27.92A10.29,10.29,0,1,1,751.08,309,10.28,10.28,0,0,1,740.79,319.27Z"/><path class="cls-3" d="M858.79,45.35A17.64,17.64,0,1,0,876.42,63,17.63,17.63,0,0,0,858.79,45.35Zm0,27.92A10.29,10.29,0,1,1,869.08,63,10.28,10.28,0,0,1,858.79,73.27Z"/><path class="cls-3" d="M626,190.89a17.64,17.64,0,1,0,17.63,17.64A17.63,17.63,0,0,0,626,190.89Zm0,27.93a10.29,10.29,0,1,1,10.29-10.29A10.28,10.28,0,0,1,626,218.82Z"/><path class="cls-3" d="M124.71,119.14a17.64,17.64,0,1,0,17.64,17.63A17.63,17.63,0,0,0,124.71,119.14Zm0,27.92A10.29,10.29,0,1,1,135,136.77,10.28,10.28,0,0,1,124.71,147.06Z"/><path class="cls-3" d="M1055.49,180.64a17.64,17.64,0,1,0,17.63,17.64A17.63,17.63,0,0,0,1055.49,180.64Zm0,27.93a10.29,10.29,0,1,1,10.29-10.29A10.28,10.28,0,0,1,1055.49,208.57Z"/><g class="cls-1"><line class="cls-2" x1="571.77" y1="2484.48" x2="635.7" y2="2548.42"/><line class="cls-2" x1="635.7" y1="2484.48" x2="571.77" y2="2548.42"/></g><g class="cls-1"><line class="cls-2" x1="128.77" y1="2413.48" x2="192.7" y2="2477.42"/><line class="cls-2" x1="192.7" y1="2413.48" x2="128.77" y2="2477.42"/></g><g class="cls-1"><line class="cls-2" x1="676.33" y1="2193.36" x2="740.26" y2="2257.29"/><line class="cls-2" x1="740.26" y1="2193.36" x2="676.33" y2="2257.29"/></g><g class="cls-1"><line class="cls-2" x1="302.18" y1="2112.38" x2="366.11" y2="2176.31"/><line class="cls-2" x1="366.11" y1="2112.38" x2="302.18" y2="2176.31"/></g><g class="cls-1"><line class="cls-2" x1="600.48" y1="2041.65" x2="664.41" y2="2105.58"/><line class="cls-2" x1="664.41" y1="2041.65" x2="600.48" y2="2105.58"/></g><g class="cls-1"><line class="cls-2" x1="360.61" y1="1801.78" x2="424.54" y2="1865.71"/><line class="cls-2" x1="424.54" y1="1801.78" x2="360.61" y2="1865.71"/></g><g class="cls-1"><line class="cls-2" x1="950.03" y1="1736.17" x2="1013.96" y2="1800.11"/><line class="cls-2" x1="1013.96" y1="1736.17" x2="950.03" y2="1800.11"/></g><g class="cls-1"><line class="cls-2" x1="1117.12" y1="1120.1" x2="1181.05" y2="1184.03"/><line class="cls-2" x1="1181.05" y1="1120.1" x2="1117.12" y2="1184.03"/></g><g class="cls-1"><line class="cls-2" x1="216.07" y1="936.61" x2="280" y2="1000.54"/><line class="cls-2" x1="280" y1="936.61" x2="216.07" y2="1000.54"/></g><path class="cls-3" d="M537.94,2293.15a50,50,0,1,0,50,50A50,50,0,0,0,537.94,2293.15Zm0,92.59a42.62,42.62,0,1,1,42.63-42.62A42.61,42.61,0,0,1,537.94,2385.74Z"/><path class="cls-3" d="M1124.94,2415.15a50,50,0,1,0,50,50A50,50,0,0,0,1124.94,2415.15Zm0,92.59a42.62,42.62,0,1,1,42.63-42.62A42.61,42.61,0,0,1,1124.94,2507.74Z"/><path class="cls-3" d="M110.49,1940.52a50,50,0,1,0,50,50A50,50,0,0,0,110.49,1940.52Zm0,92.59a42.62,42.62,0,1,1,42.62-42.62A42.61,42.61,0,0,1,110.49,2033.11Z"/><path class="cls-3" d="M776.79,2012.28a50,50,0,1,0,50,50A50,50,0,0,0,776.79,2012.28Zm0,92.59a42.62,42.62,0,1,1,42.62-42.62A42.61,42.61,0,0,1,776.79,2104.87Z"/><path class="cls-3" d="M306.28,1933.35a50,50,0,1,0,50,50A50,50,0,0,0,306.28,1933.35Zm0,92.59a42.62,42.62,0,1,1,42.62-42.62A42.61,42.61,0,0,1,306.28,2025.94Z"/><path class="cls-3" d="M1062.79,1890.29a50,50,0,1,0,50,50A50,50,0,0,0,1062.79,1890.29Zm0,92.59a42.62,42.62,0,1,1,42.62-42.62A42.61,42.61,0,0,1,1062.79,1982.88Z"/><path class="cls-3" d="M77.68,1616.6a50,50,0,1,0,50,50A50,50,0,0,0,77.68,1616.6Zm0,92.59a42.62,42.62,0,1,1,42.62-42.62A42.62,42.62,0,0,1,77.68,1709.19Z"/><path class="cls-3" d="M646.6,1465.91a50,50,0,1,0,50,50A50,50,0,0,0,646.6,1465.91Zm0,92.59a42.62,42.62,0,1,1,42.62-42.62A42.62,42.62,0,0,1,646.6,1558.5Z"/><path class="cls-3" d="M831.12,1339.82a50,50,0,1,0,50,50A50,50,0,0,0,831.12,1339.82Zm0,92.6a42.63,42.63,0,1,1,42.62-42.63A42.61,42.61,0,0,1,831.12,1432.42Z"/><path class="cls-3" d="M240.67,1257.82a50,50,0,1,0,50,50A50,50,0,0,0,240.67,1257.82Zm0,92.59a42.62,42.62,0,1,1,42.62-42.62A42.62,42.62,0,0,1,240.67,1350.41Z"/><path class="cls-3" d="M516.42,1286.52a50,50,0,1,0,50,50A50,50,0,0,0,516.42,1286.52Zm0,92.59A42.62,42.62,0,1,1,559,1336.49,42.61,42.61,0,0,1,516.42,1379.11Z"/><path class="cls-3" d="M991,1145.06a50,50,0,1,0,50,50A50,50,0,0,0,991,1145.06Zm0,92.59a42.62,42.62,0,1,1,42.62-42.62A42.62,42.62,0,0,1,991,1237.65Z"/><path class="cls-3" d="M823.94,959.52a50,50,0,1,0,50,50A50,50,0,0,0,823.94,959.52Zm0,92.59a42.62,42.62,0,1,1,42.62-42.62A42.62,42.62,0,0,1,823.94,1052.11Z"/><path class="cls-3" d="M89,788.33a50,50,0,1,0,50,50A50,50,0,0,0,89,788.33Zm0,92.59a42.62,42.62,0,1,1,42.62-42.62A42.61,42.61,0,0,1,89,880.92Z"/><path class="cls-3" d="M398.5,2442.46l-99.28-57.31v114.63Zm-15.74-.13-75.43,43.55v-87.1Z"/><path class="cls-3" d="M1013.11,2094.53,955.8,2193.8h114.63Zm-.13,15.74,43.55,75.42h-87.1Z"/><path class="cls-3" d="M180.75,2195l-57.32,99.28H238.07Zm-.14,15.74,43.55,75.43H137.07Z"/><path class="cls-3" d="M444.78,1932l99.28,57.32V1874.65Zm15.74.13L536,1888.56v87.09Z"/><path class="cls-3" d="M1176.54,1740.28,1077.26,1683V1797.6Zm-15.74-.13-75.43,43.55v-87.1Z"/><path class="cls-3" d="M733.27,1812.63,676,1911.91H790.58Zm-.14,15.74,43.55,75.42H689.59Z"/><path class="cls-3" d="M897.71,1568.07l-99.27-57.32v114.64Zm-15.74-.13-75.42,43.54v-87.09Z"/><path class="cls-3" d="M319.13,1593.26l-57.32,99.28H376.45ZM319,1609l43.55,75.43h-87.1Z"/><path class="cls-3" d="M962.45,997.1l99.28,57.32V939.78Zm15.74.13,75.43-43.55v87.1Z"/><path class="cls-3" d="M355.45,1139.58l-99.28-57.31V1196.9Zm-15.74-.13L264.28,1183v-87.1Z"/><path class="cls-3" d="M675.86,1282.66l-57.32,99.28H733.18Zm-.13,15.74,43.55,75.43h-87.1Z"/><path class="cls-3" d="M110,1151.45,52.7,1250.73H167.33Zm-.14,15.74,43.55,75.42H66.34Z"/><line class="cls-4" x1="942.31" y1="2282.91" x2="1022.41" y2="2363.01"/><line class="cls-4" x1="726.9" y1="2322.77" x2="704.77" y2="2433.86"/><line class="cls-4" x1="722.94" y1="1699.64" x2="803.04" y2="1779.74"/><line class="cls-4" x1="1152.78" y1="1398.38" x2="1185.07" y2="1506.96"/><line class="cls-4" x1="118.46" y1="1488.28" x2="187.67" y2="1398.6"/><line class="cls-4" x1="783.42" y1="1150.2" x2="863.52" y2="1230.3"/><line class="cls-4" x1="443.44" y1="1055.51" x2="555.65" y2="1040.01"/><path class="cls-4" d="M878,2338.64c-17.75,18-39.46,44.87-32.34,67.61,8.86,28.27,56.24,30.69,57.32,51.44,1.16,22.13-52.12,30.3-57.32,61.73-3.11,18.82,12.43,37.49,27.93,51.44"/><path class="cls-4" d="M1184.44,2012.67c-17.74,17.95-39.46,44.87-32.33,67.6,8.86,28.27,56.24,30.69,57.32,51.44,1.16,22.13-52.12,30.3-57.32,61.73-3.11,18.82,12.43,37.49,27.93,51.44"/><path class="cls-4" d="M506.87,2012.67c-17.75,17.95-39.46,44.87-32.34,67.6,8.86,28.27,56.24,30.69,57.32,51.44,1.16,22.13-52.12,30.3-57.32,61.73-3.11,18.82,12.43,37.49,27.93,51.44"/><path class="cls-4" d="M925.1,1862c-17.74,18-39.46,44.87-32.33,67.61,8.86,28.27,56.23,30.68,57.31,51.44,1.16,22.12-52.12,30.29-57.31,61.72-3.12,18.83,12.42,37.5,27.92,51.44"/><path class="cls-4" d="M202.42,1700c-17.75,18-39.46,44.87-32.34,67.6,8.86,28.27,56.24,30.69,57.32,51.44,1.16,22.13-52.12,30.3-57.32,61.73-3.11,18.82,12.43,37.49,27.93,51.44"/><path class="cls-4" d="M549.92,1544.21c-17.75,18-39.46,44.87-32.33,67.6,8.86,28.27,56.23,30.69,57.31,51.44,1.16,22.13-52.12,30.3-57.31,61.73-3.12,18.82,12.42,37.49,27.92,51.44"/><path class="cls-4" d="M1037.86,1336.11c-17.75,18-39.46,44.87-32.34,67.61,8.87,28.27,56.24,30.69,57.32,51.44,1.16,22.12-52.12,30.29-57.32,61.73-3.11,18.82,12.43,37.49,27.93,51.44"/><path class="cls-4" d="M367.45,1258.21c-17.74,18-39.46,44.87-32.33,67.6,8.86,28.27,56.23,30.69,57.32,51.44,1.15,22.13-52.12,30.3-57.32,61.73-3.11,18.82,12.43,37.49,27.92,51.44"/><path class="cls-4" d="M1184.44,765.14c-17.74,18-39.46,44.87-32.33,67.61,8.86,28.27,56.24,30.68,57.32,51.44,1.16,22.12-52.12,30.29-57.32,61.72-3.11,18.83,12.43,37.5,27.93,51.44"/><path class="cls-4" d="M680.1,986.56c-17.74,18-39.46,44.87-32.33,67.61,8.86,28.27,56.23,30.68,57.32,51.44,1.15,22.12-52.12,30.29-57.32,61.72-3.11,18.83,12.43,37.5,27.93,51.44"/><path class="cls-3" d="M826.89,2276.94a17.64,17.64,0,1,0,17.64,17.63A17.63,17.63,0,0,0,826.89,2276.94Zm0,27.92a10.29,10.29,0,1,1,10.29-10.29A10.28,10.28,0,0,1,826.89,2304.86Z"/><path class="cls-3" d="M392.26,2315.89a17.64,17.64,0,1,0,17.64,17.64A17.64,17.64,0,0,0,392.26,2315.89Zm0,27.92a10.29,10.29,0,1,1,10.29-10.28A10.28,10.28,0,0,1,392.26,2343.81Z"/><path class="cls-3" d="M220.26,2518.89a17.64,17.64,0,1,0,17.64,17.64A17.64,17.64,0,0,0,220.26,2518.89Zm0,27.92a10.29,10.29,0,1,1,10.29-10.28A10.28,10.28,0,0,1,220.26,2546.81Z"/><path class="cls-3" d="M726.44,1944.81a17.64,17.64,0,1,0,17.63,17.64A17.63,17.63,0,0,0,726.44,1944.81Zm0,27.92a10.29,10.29,0,1,1,10.28-10.28A10.28,10.28,0,0,1,726.44,1972.73Z"/><path class="cls-3" d="M392.26,1742.87a17.64,17.64,0,1,0,17.64,17.63A17.63,17.63,0,0,0,392.26,1742.87Zm0,27.92a10.29,10.29,0,1,1,10.29-10.29A10.28,10.28,0,0,1,392.26,1770.79Z"/><path class="cls-3" d="M611.63,1844.35A17.64,17.64,0,1,0,629.26,1862,17.63,17.63,0,0,0,611.63,1844.35Zm0,27.92A10.29,10.29,0,1,1,621.92,1862,10.28,10.28,0,0,1,611.63,1872.27Z"/><path class="cls-3" d="M110.36,1772.59A17.64,17.64,0,1,0,128,1790.23,17.63,17.63,0,0,0,110.36,1772.59Zm0,27.93a10.29,10.29,0,1,1,10.29-10.29A10.28,10.28,0,0,1,110.36,1800.52Z"/><path class="cls-3" d="M1141.6,1591.16a17.64,17.64,0,1,0,17.63,17.63A17.63,17.63,0,0,0,1141.6,1591.16Zm0,27.92a10.29,10.29,0,1,1,10.28-10.29A10.28,10.28,0,0,1,1141.6,1619.08Z"/><path class="cls-3" d="M1041.14,1834.1a17.64,17.64,0,1,0,17.63,17.64A17.63,17.63,0,0,0,1041.14,1834.1Zm0,27.92a10.29,10.29,0,1,1,10.29-10.28A10.28,10.28,0,0,1,1041.14,1862Z"/><path class="cls-3" d="M275.4,1732.62A17.64,17.64,0,1,0,293,1750.25,17.63,17.63,0,0,0,275.4,1732.62Zm0,27.92a10.29,10.29,0,1,1,10.29-10.29A10.28,10.28,0,0,1,275.4,1760.54Z"/><path class="cls-3" d="M646.48,1667a17.64,17.64,0,1,0,17.64,17.64A17.64,17.64,0,0,0,646.48,1667Zm0,27.93a10.29,10.29,0,1,1,10.29-10.29A10.28,10.28,0,0,1,646.48,1694.94Z"/><path class="cls-3" d="M198.52,1516.32A17.64,17.64,0,1,0,216.16,1534,17.64,17.64,0,0,0,198.52,1516.32Zm0,27.93A10.29,10.29,0,1,1,208.81,1534,10.28,10.28,0,0,1,198.52,1544.25Z"/><path class="cls-3" d="M948.88,1072.46a17.64,17.64,0,1,0,17.64,17.64A17.64,17.64,0,0,0,948.88,1072.46Zm0,27.93a10.29,10.29,0,1,1,10.29-10.29A10.28,10.28,0,0,1,948.88,1100.39Z"/><path class="cls-3" d="M773.59,1233.4A17.64,17.64,0,1,0,791.23,1251,17.64,17.64,0,0,0,773.59,1233.4Zm0,27.93A10.29,10.29,0,1,1,783.88,1251,10.28,10.28,0,0,1,773.59,1261.33Z"/><path class="cls-3" d="M466.07,1466.1a17.64,17.64,0,1,0,17.63,17.63A17.63,17.63,0,0,0,466.07,1466.1Zm0,27.92a10.29,10.29,0,1,1,10.28-10.29A10.28,10.28,0,0,1,466.07,1494Z"/><path class="cls-3" d="M419.94,932a17.64,17.64,0,1,0,17.63,17.63A17.63,17.63,0,0,0,419.94,932Zm0,27.92a10.29,10.29,0,1,1,10.28-10.29A10.28,10.28,0,0,1,419.94,960Z"/><path class="cls-3" d="M110.36,1030.43A17.64,17.64,0,1,0,128,1048.07,17.63,17.63,0,0,0,110.36,1030.43Zm0,27.93a10.29,10.29,0,1,1,10.29-10.29A10.28,10.28,0,0,1,110.36,1058.36Z"/><path class="cls-3" d="M230.3,837.72a17.64,17.64,0,1,0,17.63,17.64A17.63,17.63,0,0,0,230.3,837.72Zm0,27.92a10.29,10.29,0,1,1,10.28-10.28A10.28,10.28,0,0,1,230.3,865.64Z"/><path class="cls-3" d="M1090.34,848A17.64,17.64,0,1,0,1108,865.61,17.64,17.64,0,0,0,1090.34,848Zm0,27.92a10.29,10.29,0,1,1,10.29-10.28A10.28,10.28,0,0,1,1090.34,875.89Z"/><path class="cls-3" d="M484.52,1187.27a17.64,17.64,0,1,0,17.63,17.64A17.63,17.63,0,0,0,484.52,1187.27Zm0,27.93a10.29,10.29,0,1,1,10.29-10.29A10.28,10.28,0,0,1,484.52,1215.2Z"/></svg>