<svg id="Layer_1" data-name="Layer 1" xmlns="http://www.w3.org/2000/svg" xmlns:xlink="http://www.w3.org/1999/xlink" viewBox="0 0 1404.03 1404.03"><defs><style>.cls-1{fill:url(#linear-gradient);}.cls-11,.cls-2,.cls-3{fill:#f2f2f2;}.cls-3{font-size:100px;}.cls-11,.cls-3,.cls-7{font-family:MyriadPro-Regular, Myriad Pro;}.cls-4{letter-spacing:-0.01em;}.cls-5{letter-spacing:-0.04em;}.cls-6{letter-spacing:-0.06em;}.cls-7{font-size:90px;}.cls-10,.cls-7{fill:#262122;}.cls-8{letter-spacing:-0.06em;}.cls-9{letter-spacing:0em;}.cls-11{font-size:85px;}.cls-12{letter-spacing:0em;}.cls-13{letter-spacing:-0.01em;}</style><linearGradient id="linear-gradient" x1="84.5" y1="707.75" x2="1320.5" y2="707.75" gradientUnits="userSpaceOnUse"><stop offset="0" stop-color="#f2522e"/><stop offset="1" stop-color="#cd2600"/></linearGradient></defs><title>feature</title><rect class="cls-1" x="84.5" y="65.5" width="1236" height="1284.5" rx="94" ry="94"/><rect class="cls-2" x="197" y="325" width="1011" height="135"/><rect class="cls-2" x="197" y="577" width="1011" height="135"/><rect class="cls-2" x="257" y="837" width="891" height="326"/><text class="cls-3" transform="translate(518.12 229.83)"><tspan class="cls-4">A</tspan><tspan x="60" y="0">dd</tspan><tspan class="cls-5" x="172.8" y="0"> </tspan><tspan class="cls-6" x="189.9" y="0">T</tspan><tspan x="233.2" y="0">ask</tspan></text><text class="cls-7" transform="translate(217.52 414.76)"><tspan class="cls-8">T</tspan><tspan x="38.97" y="0">ask name</tspan></text><text class="cls-7" transform="translate(209.52 663.76)"><tspan class="cls-9">D</tspan><tspan x="60.3" y="0">esc</tspan><tspan class="cls-9" x="181.35" y="0">r</tspan><tspan x="211.14" y="0">iption</tspan></text><path class="cls-10" d="M301,746h803a44,44,0,0,1,44,44v47a0,0,0,0,1,0,0H257a0,0,0,0,1,0,0V790A44,44,0,0,1,301,746Z"/><text class="cls-11" transform="translate(618.28 818.35)">D<tspan class="cls-12" x="56.61" y="0">a</tspan><tspan class="cls-13" x="97.24" y="0">t</tspan><tspan x="124.86" y="0">e</tspan></text><text class="cls-3" transform="translate(614.17 1295)"><tspan class="cls-4">A</tspan><tspan x="60" y="0">dd</tspan></text></svg>