<svg id="Layer_1" data-name="Layer 1" xmlns="http://www.w3.org/2000/svg" viewBox="0 0 1404.03 1404.03"><defs><style>.cls-1,.cls-2{fill:#f2522e;}.cls-2{opacity:0.53;}.cls-3,.cls-4,.cls-6{fill:#f2f2f2;}.cls-4{font-size:60px;font-family:MyriadPro-Regular, Myriad Pro;letter-spacing:-0.06em;}.cls-5{letter-spacing:0em;}.cls-6{font-size:40px;font-family:Arial-ItalicMT, Arial;font-style:italic;}.cls-7,.cls-8{fill:none;stroke-miterlimit:10;stroke-width:7px;}.cls-7{stroke:#f2f2f2;}.cls-8{stroke:#262122;}</style></defs><title>feature</title><rect class="cls-1" x="84.5" y="65.5" width="1236" height="188" rx="94" ry="94"/><rect class="cls-2" x="84.5" y="346.5" width="1236" height="188" rx="94" ry="94"/><rect class="cls-1" x="84.5" y="614.5" width="1236" height="188" rx="94" ry="94"/><rect class="cls-2" x="84.5" y="882.5" width="1236" height="188" rx="94" ry="94"/><rect class="cls-1" x="84.5" y="1150.5" width="1236" height="188" rx="94" ry="94"/><rect class="cls-3" x="153" y="122" width="74" height="74" rx="12" ry="12"/><rect class="cls-3" x="153" y="397" width="74" height="74" rx="12" ry="12"/><rect class="cls-3" x="153" y="672" width="74" height="74" rx="12" ry="12"/><rect class="cls-3" x="153" y="939" width="74" height="74" rx="12" ry="12"/><rect class="cls-3" x="153" y="1207" width="74" height="74" rx="12" ry="12"/><text class="cls-4" transform="translate(275 144.6)">T<tspan class="cls-5" x="25.98" y="0">ask</tspan></text><text class="cls-6" transform="translate(283 219.64)">24/05/2019</text><text class="cls-4" transform="translate(266 426.6)">T<tspan class="cls-5" x="25.98" y="0">ask</tspan></text><text class="cls-6" transform="translate(274 501.64)">24/05/2019</text><text class="cls-4" transform="translate(257 694.6)">T<tspan class="cls-5" x="25.98" y="0">ask</tspan></text><text class="cls-6" transform="translate(265 769.64)">24/05/2019</text><text class="cls-4" transform="translate(257 962.6)">T<tspan class="cls-5" x="25.98" y="0">ask</tspan></text><text class="cls-6" transform="translate(265 1037.64)">24/05/2019</text><text class="cls-4" transform="translate(248 1238.6)">T<tspan class="cls-5" x="25.98" y="0">ask</tspan></text><text class="cls-6" transform="translate(256 1313.64)">24/05/2019</text><line class="cls-7" x1="266" y1="408" x2="454" y2="408"/><line class="cls-7" x1="266" y1="486.5" x2="488.5" y2="486.5"/><line class="cls-7" x1="260" y1="946" x2="448" y2="946"/><line class="cls-7" x1="260" y1="1024.5" x2="482.5" y2="1024.5"/><polyline class="cls-8" points="248.98 925.02 182.5 991.5 153 962"/><polyline class="cls-8" points="248.98 389.02 182.5 455.5 153 426"/></svg>